PathFileType	4	(X/Y/Z)	c:/Users/goper/Files/vsCode/490R/osim_files/C03/C03_fast_01.trc
DataRate	CameraRate	NumFrames	NumMarkers	Units                	OrigDataRate	OrigDataStartFrame	OrigNumFrames
250.00	250.00	5	36	mm	250.0	1036	2760
                Frame#	Time	LPSIS			LASIS			LTH1			LTH2			LTH3			LTH4			LLFE			LMFE			LSH1			LSH2			LSH3			LSH4			LLMAL			LMMAL			LCAL			LMTP5			LTOE			LMTP1			RPSIS			RASIS			RTH1			RTH2			RTH3			RTH4			RLFE			RMFE			RSH1			RSH2			RSH3			RSH4			RLMAL			RMMAL			RCAL			RMTP1			RTOE			RMTP5		
		X1	Y1	Z1	X2	Y2	Z2	X3	Y3	Z3	X4	Y4	Z4	X5	Y5	Z5	X6	Y6	Z6	X7	Y7	Z7	X8	Y8	Z8	X9	Y9	Z9	X10	Y10	Z10	X11	Y11	Z11	X12	Y12	Z12	X13	Y13	Z13	X14	Y14	Z14	X15	Y15	Z15	X16	Y16	Z16	X17	Y17	Z17	X18	Y18	Z18	X19	Y19	Z19	X20	Y20	Z20	X21	Y21	Z21	X22	Y22	Z22	X23	Y23	Z23	X24	Y24	Z24	X25	Y25	Z25	X26	Y26	Z26	X27	Y27	Z27	X28	Y28	Z28	X29	Y29	Z29	X30	Y30	Z30	X31	Y31	Z31	X32	Y32	Z32	X33	Y33	Z33	X34	Y34	Z34	X35	Y35	Z35	X36	Y36	Z36

1036	4.14000	1783.44312	998.58563	288.12796	0.00000	0.00000	0.00000	1824.07666	628.94568	375.24194	1835.86072	567.88281	369.10257	1750.26855	609.02454	383.53711	1769.64709	550.36090	375.62671	1844.54138	476.94070	362.29752	0.00000	0.00000	0.00000	2006.66199	369.61673	355.70541	2036.51294	336.72067	355.56177	1959.71033	337.11246	366.58884	0.00000	0.00000	0.00000	2097.84058	173.59244	327.34280	0.00000	0.00000	0.00000	0.00000	0.00000	0.00000	2022.62000	57.31888	345.40778	2057.36963	38.79539	287.15121	0.00000	0.00000	0.00000	1766.55664	987.55597	177.63139	1586.32678	952.36737	144.46428	0.00000	0.00000	0.00000	1561.92566	512.67163	147.88805	0.00000	0.00000	0.00000	1498.69629	543.91071	122.03321	1475.92505	481.22836	141.38274	1493.47729	494.08188	245.93645	1492.29163	276.92407	134.48349	1473.83325	234.41080	134.99734	1434.32935	295.60703	121.82623	1422.22827	254.05937	126.46391	1369.79700	107.91384	150.62518	0.00000	0.00000	0.00000	1418.02917	56.59498	190.15195	1226.33777	111.05122	227.13464	1208.91101	138.81052	187.27307	1241.95349	87.18890	125.96211
1037	4.14400	1775.54297	998.54871	287.60422	0.00000	0.00000	0.00000	1814.52747	628.21191	375.23752	1826.06299	567.06030	369.38678	1740.62256	608.56036	383.53821	1759.93286	549.91840	376.05157	1835.37830	476.74396	363.41196	0.00000	0.00000	0.00000	1998.60645	371.56207	355.89767	2029.34973	339.05997	355.99591	1952.09424	338.21683	367.11548	0.00000	0.00000	0.00000	2092.76978	176.52061	327.87265	2066.12744	176.66280	251.34259	0.00000	0.00000	0.00000	2021.63440	57.43192	345.55521	2048.66724	41.53330	286.99319	0.00000	0.00000	0.00000	1758.59290	987.86322	176.86816	1578.52100	952.63165	143.69911	0.00000	0.00000	0.00000	1556.22888	512.67426	147.38028	1520.17639	592.87451	115.18958	1487.96118	540.34027	127.25082	1470.24170	480.58643	140.48712	1488.40955	493.04678	245.92355	1487.14856	276.66150	135.01720	1469.10022	234.20583	135.42191	1428.91406	294.82510	121.56395	1417.43738	253.30714	126.65511	1366.31750	106.98895	150.62431	0.00000	0.00000	0.00000	1416.21716	57.41833	190.10283	1223.26819	106.79987	227.72383	1204.95752	134.26297	187.83342	1240.07507	83.28198	126.24347
1038	4.14800	1767.62146	998.59137	287.07816	0.00000	0.00000	0.00000	1804.76270	627.47198	375.30771	1816.10413	566.29333	369.76974	1730.77527	608.12006	383.56381	1749.95227	549.41119	376.42664	1825.52344	476.03000	364.40274	1813.14111	463.32935	251.78885	1990.16504	373.49820	355.98715	2021.99988	341.52133	356.49530	1944.19128	339.25800	367.62509	0.00000	0.00000	0.00000	2087.57715	179.71173	328.34985	2060.33545	179.21603	252.08398	0.00000	0.00000	0.00000	2020.49695	57.51480	345.68463	2039.29407	44.31870	286.85641	0.00000	0.00000	0.00000	1750.61133	988.28687	176.10545	1571.03650	953.48608	142.40971	0.00000	0.00000	0.00000	1550.57764	512.72974	146.75745	1513.57422	592.68744	114.83313	1483.76929	542.37372	123.44437	1464.31018	480.18546	139.34886	1483.53406	492.20462	245.73436	1481.95142	276.48755	135.21674	1464.56689	234.23499	135.69174	1420.36731	295.58627	123.38850	1412.18408	252.69878	126.66235	1363.65015	106.18148	149.70535	1352.14490	114.07507	229.93858	1414.61865	58.11847	189.93646	1220.54187	102.40226	228.81572	1201.57800	129.64400	188.79724	1237.31384	79.54831	127.21008
1039	4.15200	1759.68591	998.72308	286.58136	0.00000	0.00000	0.00000	1794.84509	626.70209	375.35605	1805.93408	565.45227	370.20422	1720.92542	607.73438	383.74509	1739.73840	548.78046	376.85999	1815.03613	475.01758	365.23059	1802.34265	461.84323	253.09650	1981.55786	375.47806	356.08862	0.00000	0.00000	0.00000	1935.98022	340.30948	368.18393	0.00000	0.00000	0.00000	2081.58838	182.56960	328.80331	2053.94312	181.53087	252.83850	0.00000	0.00000	0.00000	2019.21179	57.66298	345.84399	2029.30200	47.24895	286.73242	0.00000	0.00000	0.00000	1742.60547	988.76556	175.39601	1563.11768	953.40717	141.95026	0.00000	0.00000	0.00000	1544.85742	512.88531	145.88112	1506.93945	592.45380	114.38393	1480.54395	542.03418	121.44605	1458.09778	479.71704	138.56923	1479.46289	491.56561	245.86688	1476.86292	276.40964	135.22685	1460.10425	234.22719	135.72696	1416.94739	294.63550	122.80132	1407.59460	251.97386	126.46921	1360.50854	105.14056	150.43236	1349.59753	112.83929	229.85262	1413.28467	58.67806	189.72409	1218.29724	98.29196	229.82384	1198.54358	125.10944	189.75735	1235.31702	75.84035	127.92207
1040	4.15600	1751.75781	998.91010	286.08655	0.00000	0.00000	0.00000	1784.76038	625.87445	375.49170	1795.61340	564.59259	370.66211	1710.74683	607.18347	384.01852	1729.43066	548.21313	377.49982	1805.26599	474.69333	366.63489	1791.31128	460.30911	254.32205	1972.51880	377.32446	356.07928	0.00000	0.00000	0.00000	1927.44373	341.27112	368.71835	0.00000	0.00000	0.00000	2075.56079	185.76837	329.20386	2047.17969	183.86774	253.54680	2162.50513	191.53777	292.50110	2017.85510	57.85792	346.01425	0.00000	0.00000	0.00000	0.00000	0.00000	0.00000	1734.61438	989.41028	174.67380	1555.59692	954.31055	140.91937	0.00000	0.00000	0.00000	1538.62292	512.31421	145.36084	1500.43726	592.50372	113.66891	0.00000	0.00000	0.00000	1449.94568	479.54794	139.13582	1475.74744	491.45078	245.96518	1471.89246	276.48816	134.93152	1455.70544	234.30347	135.50500	1411.93372	294.25613	122.38177	1403.11340	251.28296	126.15975	1358.03992	104.24704	150.26492	1347.02795	111.98598	229.40102	1412.00598	59.10230	189.44960	1216.34863	94.41003	230.72444	1195.67029	120.76231	190.84964	1233.50232	72.15121	128.40475
